<?xml version="1.0" encoding="UTF-8" standalone="no"?>
<!-- Created with Inkscape (http://www.inkscape.org/) -->

<svg
   xmlns:dc="http://purl.org/dc/elements/1.1/"
   xmlns:cc="http://creativecommons.org/ns#"
   xmlns:rdf="http://www.w3.org/1999/02/22-rdf-syntax-ns#"
   xmlns:svg="http://www.w3.org/2000/svg"
   xmlns="http://www.w3.org/2000/svg"
   xmlns:sodipodi="http://sodipodi.sourceforge.net/DTD/sodipodi-0.dtd"
   xmlns:inkscape="http://www.inkscape.org/namespaces/inkscape"
   width="1189mm"
   height="841mm"
   viewBox="0 0 1189 841"
   version="1.1"
   id="svg8"
   inkscape:version="0.92.3 (2405546, 2018-03-11)"
   sodipodi:docname="sample_job invitation.svg">
  <defs
     id="defs2" />
  <sodipodi:namedview
     id="base"
     pagecolor="#ffffff"
     bordercolor="#666666"
     borderopacity="1.0"
     inkscape:pageopacity="0.0"
     inkscape:pageshadow="2"
     inkscape:zoom="0.26112267"
     inkscape:cx="2268.5875"
     inkscape:cy="1416.9585"
     inkscape:document-units="mm"
     inkscape:current-layer="layer1"
     showgrid="false"
     inkscape:snap-nodes="false"
     inkscape:window-width="1920"
     inkscape:window-height="1029"
     inkscape:window-x="0"
     inkscape:window-y="1080"
     inkscape:window-maximized="1" />
  <metadata
     id="metadata5">
    <rdf:RDF>
      <cc:Work
         rdf:about="">
        <dc:format>image/svg+xml</dc:format>
        <dc:type
           rdf:resource="http://purl.org/dc/dcmitype/StillImage" />
        <dc:title></dc:title>
      </cc:Work>
    </rdf:RDF>
  </metadata>
  <g
     inkscape:label="Capa 1"
     inkscape:groupmode="layer"
     id="layer1"
     transform="translate(0,544)">
    <path
       style="opacity:1;vector-effect:none;fill:#aa0000;fill-opacity:1;stroke:#ffffff;stroke-width:0.85077548;stroke-linecap:round;stroke-linejoin:round;stroke-miterlimit:4;stroke-dasharray:none;stroke-dashoffset:0;stroke-opacity:1"
       d="m 121.92176,-489.32198 h 633.30775 c 4.29868,0 6.04861,3.0088 3.92361,6.74619 l -60.73363,106.81555 c -2.12502,3.73739 -7.29648,6.74619 -11.59517,6.74619 H 53.516581 c -4.298691,0 -6.048612,-3.0088 -3.923589,-6.74619 l 60.733618,-106.81555 c 2.12502,-3.73739 7.29646,-6.74619 11.59515,-6.74619 z"
       id="rect5654"
       inkscape:connector-curvature="0"
       inkscape:export-filename="/home/marian/PycharmProjects/certmailer/sample_job/attach/LOGO.png"
       inkscape:export-xdpi="26.58"
       inkscape:export-ydpi="26.58" />
    <path
       id="path5657"
       d="m 121.92176,-489.32198 h 633.30775 c 4.29868,0 6.04861,3.0088 3.92361,6.74619 l -60.73363,106.81555 c -2.12502,3.73739 -7.29648,6.74619 -11.59517,6.74619 H 53.516581 c -4.298691,0 -6.048612,-3.0088 -3.923589,-6.74619 l 60.733618,-106.81555 c 2.12502,-3.73739 7.29646,-6.74619 11.59515,-6.74619 z"
       style="opacity:1;vector-effect:none;fill:#005522;fill-opacity:1;stroke:#ffffff;stroke-width:0.85077548;stroke-linecap:round;stroke-linejoin:round;stroke-miterlimit:4;stroke-dasharray:none;stroke-dashoffset:0;stroke-opacity:1"
       inkscape:connector-curvature="0"
       inkscape:export-filename="/home/marian/PycharmProjects/certmailer/sample_job/attach/LOGO.png"
       inkscape:export-xdpi="26.58"
       inkscape:export-ydpi="26.58" />
    <path
       style="opacity:1;vector-effect:none;fill:#88aa00;fill-opacity:1;stroke:#ffffff;stroke-width:0.85077542;stroke-linecap:round;stroke-linejoin:round;stroke-miterlimit:4;stroke-dasharray:none;stroke-dashoffset:0;stroke-opacity:1"
       d="m 788.4953,-489.32198 h 98.45232 c 4.29868,0 6.04864,3.0088 3.92361,6.74619 l -60.7336,106.81555 c -2.12503,3.73739 -7.29649,6.74619 -11.59517,6.74619 h -98.45232 c -4.2987,0 -6.04863,-3.0088 -3.92361,-6.74619 l 60.73362,-106.81555 c 2.12501,-3.73739 7.29645,-6.74619 11.59515,-6.74619 z"
       id="path5659"
       inkscape:connector-curvature="0"
       sodipodi:nodetypes="sscsssscs"
       inkscape:export-filename="/home/marian/PycharmProjects/certmailer/sample_job/attach/LOGO.png"
       inkscape:export-xdpi="26.58"
       inkscape:export-ydpi="26.58" />
    <path
       sodipodi:nodetypes="sscsssscs"
       inkscape:connector-curvature="0"
       id="path5661"
       d="m 920.21344,-489.32198 h 98.45226 c 4.2987,0 6.0487,3.0088 3.9237,6.74619 l -60.73364,106.81555 c -2.12504,3.73739 -7.29649,6.74619 -11.59517,6.74619 h -98.45233 c -4.2987,0 -6.04862,-3.0088 -3.92359,-6.74619 l 60.73362,-106.81555 c 2.12501,-3.73739 7.29644,-6.74619 11.59515,-6.74619 z"
       style="opacity:1;vector-effect:none;fill:#decd87;fill-opacity:1;stroke:#ffffff;stroke-width:0.85077542;stroke-linecap:round;stroke-linejoin:round;stroke-miterlimit:4;stroke-dasharray:none;stroke-dashoffset:0;stroke-opacity:1"
       inkscape:export-filename="/home/marian/PycharmProjects/certmailer/sample_job/attach/LOGO.png"
       inkscape:export-xdpi="26.58"
       inkscape:export-ydpi="26.58" />
    <flowRoot
       xml:space="preserve"
       id="flowRoot836"
       style="font-style:normal;font-variant:normal;font-weight:normal;font-stretch:normal;font-size:12px;line-height:1.25;font-family:serif;-inkscape-font-specification:serif;letter-spacing:0px;word-spacing:0px;fill:#000000;fill-opacity:1;stroke:none"
       transform="scale(0.26458333)"><flowRegion
         id="flowRegion838"><rect
           id="rect840"
           width="26.526819"
           height="36.563995"
           x="-602.23047"
           y="356.82663" /></flowRegion><flowPara
         id="flowPara842" /></flowRoot>    <text
       xml:space="preserve"
       style="font-style:normal;font-variant:normal;font-weight:bold;font-stretch:normal;font-size:95.78895569px;line-height:1.25;font-family:Consolas;-inkscape-font-specification:'Consolas Bold';letter-spacing:0px;word-spacing:0px;fill:#ffffff;fill-opacity:1;stroke:none;stroke-width:0.45020205"
       x="99.749619"
       y="-400.05264"
       id="text5652"
       inkscape:export-filename="/home/marian/PycharmProjects/certmailer/sample_job/attach/LOGO.png"
       inkscape:export-xdpi="26.58"
       inkscape:export-ydpi="26.58"><tspan
         sodipodi:role="line"
         id="tspan5650"
         x="99.749619"
         y="-400.05264"
         style="fill:#ffffff;stroke-width:0.45020205">certmail</tspan></text>
    <path
       inkscape:connector-curvature="0"
       id="path1041"
       d="m 967.18193,235.10176 c -0.50127,-0.17338 -0.96824,-0.37399 -1.03762,-0.44589 -0.0702,-0.072 0.39317,-0.60928 1.02826,-1.19421 0.63497,-0.58487 6.29771,-5.93319 12.58384,-11.88507 6.28614,-5.9519 11.49499,-10.82165 11.57529,-10.82165 0.0806,0 1.81122,1.58795 3.84631,3.52877 4.34174,4.14029 4.80676,4.43558 6.98629,4.43583 2.1274,1.5e-4 2.6292,-0.31941 6.918,-4.40739 1.9977,-1.90393 3.6717,-3.46371 3.7202,-3.46615 0.1382,-0.007 24.9895,23.71316 24.9895,23.8522 0,0.0681 -0.3891,0.2569 -0.8647,0.41948 -0.8034,0.27445 -3.2713,0.29563 -34.8494,0.29745 -32.42029,0.001 -34.02648,-0.0117 -34.89597,-0.31328 z m -3.73665,-4.19693 c -0.14215,-0.7113 -0.14059,-45.65514 10e-4,-46.36664 0.0598,-0.30137 0.16553,-0.52531 0.23361,-0.49778 0.0689,0.0273 0.46671,0.45748 0.88508,0.95545 0.41838,0.49797 5.78058,5.66868 11.916,11.49048 6.13542,5.82181 11.29247,10.7159 11.4603,10.87579 0.2887,0.27505 -0.29867,0.8657 -10.89575,10.95633 -12.3731,11.78175 -12.9722,12.36721 -13.11448,12.81581 -0.15033,0.47465 -0.36588,0.37298 -0.48619,-0.22935 z m 76.32982,-0.24116 c -0.3297,-0.43028 -5.8139,-5.73934 -12.1871,-11.7979 -6.3732,-6.05851 -11.5876,-11.04301 -11.5876,-11.07664 0,-0.0335 5.2534,-5.0633 11.6741,-11.17706 10.8453,-10.32671 12.4798,-11.9368 12.677,-12.48794 0.04,-0.11381 0.1428,-0.14191 0.2271,-0.0624 0.1717,0.16127 0.3178,45.47469 0.1505,46.64845 -0.057,0.40472 -0.161,0.73586 -0.23,0.73586 -0.069,0 -0.3947,-0.35206 -0.7245,-0.78236 z m -39.1329,-17.66723 c -0.946,-0.30285 0.6603,1.18596 -20.52887,-19.02719 -7.56218,-7.21388 -13.74944,-13.16688 -13.74944,-13.22888 0,-0.062 0.38914,-0.24601 0.86468,-0.40901 0.80609,-0.27627 3.18524,-0.29381 35.10873,-0.25962 32.9525,0.0355 34.2718,0.0487 34.9792,0.35842 0.4042,0.17701 0.735,0.37315 0.735,0.43588 0,0.27564 -32.9753,31.31914 -33.7436,31.76684 -1.0458,0.60945 -2.4599,0.74972 -3.6657,0.36369 z"
       style="fill:#003380;stroke-width:1.29929888"
       inkscape:export-filename="/home/marian/PycharmProjects/certmailer/sample_job/attach/PIE.png"
       inkscape:export-xdpi="37.279999"
       inkscape:export-ydpi="37.279999" />
    <path
       style="opacity:0.7;fill:#003380;stroke-width:1.29929888"
       d="m 866.67947,235.10176 c -0.50124,-0.17338 -0.96822,-0.37399 -1.0377,-0.44589 -0.0696,-0.072 0.39325,-0.60928 1.02828,-1.19421 0.63501,-0.58487 6.29777,-5.93319 12.58391,-11.88507 6.28614,-5.9519 11.49502,-10.82165 11.57532,-10.82165 0.0806,0 1.81122,1.58795 3.84632,3.52877 4.34173,4.14029 4.80675,4.43558 6.98633,4.43583 2.12734,1.5e-4 2.62913,-0.31941 6.91798,-4.40739 1.99767,-1.90393 3.67169,-3.46371 3.72016,-3.46615 0.13824,-0.007 24.98954,23.71316 24.98954,23.8522 0,0.0681 -0.38914,0.2569 -0.86468,0.41948 -0.80362,0.27445 -3.27151,0.29563 -34.84941,0.29745 -32.42035,0.001 -34.0266,-0.0117 -34.89605,-0.31328 z m -3.73661,-4.19693 c -0.14222,-0.7113 -0.1407,-45.65514 10e-4,-46.36664 0.0602,-0.30137 0.16552,-0.52531 0.2336,-0.49778 0.0683,0.0273 0.46662,0.45748 0.88503,0.95545 0.41839,0.49797 5.78058,5.66868 11.91602,11.49048 6.13542,5.82181 11.29247,10.7159 11.46034,10.87579 0.2887,0.27505 -0.29871,0.8657 -10.89592,10.95633 -12.37299,11.78175 -12.97208,12.36721 -13.11433,12.81581 -0.15038,0.47465 -0.36588,0.37298 -0.48622,-0.22935 z m 76.32974,-0.24116 c -0.32963,-0.43028 -5.81384,-5.73934 -12.18703,-11.7979 -6.37319,-6.05851 -11.58754,-11.04301 -11.58754,-11.07664 0,-0.0335 5.25332,-5.0633 11.67407,-11.17706 10.84525,-10.32671 12.47964,-11.9368 12.67687,-12.48794 0.0403,-0.11381 0.14292,-0.14191 0.22725,-0.0624 0.17163,0.16127 0.3178,45.47469 0.15046,46.64845 -0.0572,0.40472 -0.16099,0.73586 -0.22998,0.73586 -0.0689,0 -0.39473,-0.35206 -0.72449,-0.78236 z m -39.13293,-17.66723 c -0.94589,-0.30285 0.66043,1.18596 -20.5288,-19.02719 -7.56217,-7.21388 -13.7495,-13.16688 -13.7495,-13.22888 0,-0.062 0.38915,-0.24601 0.86472,-0.40901 0.80615,-0.27627 3.18525,-0.29381 35.10877,-0.25962 32.95243,0.0355 34.27187,0.0487 34.97921,0.35842 0.40421,0.17701 0.73501,0.37315 0.73501,0.43588 0,0.27564 -32.9753,31.31914 -33.74357,31.76684 -1.04581,0.60945 -2.46009,0.74972 -3.66584,0.36369 z"
       id="path1044"
       inkscape:connector-curvature="0"
       inkscape:export-filename="/home/marian/PycharmProjects/certmailer/sample_job/attach/PIE.png"
       inkscape:export-xdpi="37.279999"
       inkscape:export-ydpi="37.279999" />
    <path
       inkscape:connector-curvature="0"
       id="path1046"
       d="m 769.04852,235.10176 c -0.50124,-0.17338 -0.96823,-0.37399 -1.0377,-0.44589 -0.0696,-0.072 0.39325,-0.60928 1.02828,-1.19421 0.63501,-0.58487 6.29777,-5.93319 12.58385,-11.88507 6.28613,-5.9519 11.49503,-10.82165 11.57538,-10.82165 0.0802,0 1.81118,1.58795 3.84635,3.52877 4.34163,4.14029 4.80672,4.43558 6.98633,4.43583 2.12734,1.5e-4 2.62903,-0.31941 6.91799,-4.40739 1.99758,-1.90393 3.67161,-3.46371 3.72008,-3.46615 0.13829,-0.007 24.98959,23.71316 24.98959,23.8522 0,0.0681 -0.38917,0.2569 -0.86474,0.41948 -0.80352,0.27445 -3.27141,0.29563 -34.84939,0.29745 -32.42032,0.001 -34.02657,-0.0117 -34.89602,-0.31328 z m -3.73662,-4.19693 c -0.14222,-0.7113 -0.1407,-45.65514 10e-4,-46.36664 0.0602,-0.30137 0.16552,-0.52531 0.2336,-0.49778 0.0684,0.0273 0.46662,0.45748 0.88503,0.95545 0.41839,0.49797 5.78059,5.66868 11.91599,11.49048 6.13539,5.82181 11.29253,10.7159 11.46035,10.87579 0.28867,0.27505 -0.29866,0.8657 -10.89584,10.95633 -12.37304,11.78175 -12.97214,12.36721 -13.11438,12.81581 -0.15039,0.47465 -0.36589,0.37298 -0.48623,-0.22935 z m 76.3298,-0.24116 c -0.3297,-0.43028 -5.81387,-5.73934 -12.18707,-11.7979 -6.37321,-6.05851 -11.58762,-11.04301 -11.58762,-11.07664 0,-0.0335 5.25333,-5.0633 11.6741,-11.17706 10.84524,-10.32671 12.47972,-11.9368 12.67696,-12.48794 0.0408,-0.11381 0.14282,-0.14191 0.22723,-0.0624 0.17157,0.16127 0.31778,45.47469 0.1504,46.64845 -0.0576,0.40472 -0.16099,0.73586 -0.22997,0.73586 -0.0687,0 -0.39476,-0.35206 -0.72446,-0.78236 z m -39.13294,-17.66723 c -0.94591,-0.30285 0.6604,1.18596 -20.52884,-19.02719 -7.56224,-7.21388 -13.7495,-13.16688 -13.7495,-13.22888 0,-0.062 0.38915,-0.24601 0.86472,-0.40901 0.80615,-0.27627 3.18524,-0.29381 35.10881,-0.25962 32.95244,0.0355 34.27179,0.0487 34.97911,0.35842 0.40425,0.17701 0.73501,0.37315 0.73501,0.43588 0,0.27564 -32.97523,31.31914 -33.7435,31.76684 -1.04586,0.60945 -2.46006,0.74972 -3.66581,0.36369 z"
       style="opacity:0.5;fill:#003380;stroke-width:1.29929888"
       inkscape:export-filename="/home/marian/PycharmProjects/certmailer/sample_job/attach/PIE.png"
       inkscape:export-xdpi="37.279999"
       inkscape:export-ydpi="37.279999" />
    <path
       inkscape:connector-curvature="0"
       id="path1048"
       d="m 676.14939,175.31241 v 0.42685 H 334.89412 l 34.48395,15.12292 36.96649,16.21278 -36.96649,16.21185 -36.76185,16.12293 v 0.32506 h 343.53317 v 0.42686 l 36.96747,-16.21279 36.96742,-16.21184 -36.96742,-16.21278 z"
       style="opacity:1;vector-effect:none;fill:#aaaaff;fill-opacity:0.90534979;stroke:none;stroke-width:1.51982665;stroke-linecap:round;stroke-linejoin:round;stroke-miterlimit:4;stroke-dasharray:none;stroke-dashoffset:0;stroke-opacity:1"
       inkscape:export-filename="/home/marian/PycharmProjects/certmailer/sample_job/attach/PIE.png"
       inkscape:export-xdpi="37.279999"
       inkscape:export-ydpi="37.279999" />
    <text
       id="text1052"
       y="219.11472"
       x="430.84064"
       style="font-style:normal;font-variant:normal;font-weight:bold;font-stretch:normal;font-size:37.55278397px;line-height:1.25;font-family:Consolas;-inkscape-font-specification:'Consolas Bold';letter-spacing:0px;word-spacing:0px;fill:#000000;fill-opacity:1;stroke:none;stroke-width:0.80424148"
       xml:space="preserve"
       inkscape:export-filename="/home/marian/PycharmProjects/certmailer/sample_job/attach/PIE.png"
       inkscape:export-xdpi="37.279999"
       inkscape:export-ydpi="37.279999"><tspan
         style="stroke-width:0.80424148"
         y="219.11472"
         x="430.84064"
         id="tspan1050"
         sodipodi:role="line">by mavignau</tspan></text>
    <flowRoot
       transform="matrix(1.5642925,0,0,1.5642925,-105.56058,-548.9761)"
       xml:space="preserve"
       id="flowRoot815"
       style="font-style:normal;font-variant:normal;font-weight:bold;font-stretch:normal;font-size:42.66666794px;line-height:125%;font-family:'Linux Biolinum';-inkscape-font-specification:'Linux Biolinum Bold';text-align:start;letter-spacing:0px;word-spacing:0px;writing-mode:lr-tb;text-anchor:start;fill:#000000;fill-opacity:1;stroke:none;stroke-width:1px;stroke-linecap:butt;stroke-linejoin:miter;stroke-opacity:1"><flowRegion
         id="flowRegion817"
         style="font-size:42.66666794px"><rect
           id="rect819"
           width="581.67719"
           height="258.5867"
           x="148.57143"
           y="179.41508"
           style="font-size:42.66666794px" /></flowRegion><flowPara
         id="flowPara1996">Invitación especial para todos los que quieran colaborar en </flowPara></flowRoot>    <flowRoot
       xml:space="preserve"
       id="flowRoot832"
       style="font-style:normal;font-variant:normal;font-weight:normal;font-stretch:normal;font-size:192px;line-height:125%;font-family:'Linux Biolinum';-inkscape-font-specification:'Linux Biolinum';text-align:start;letter-spacing:0px;word-spacing:0px;writing-mode:lr-tb;text-anchor:start;fill:#0000ff;fill-opacity:1;stroke:none;stroke-width:1px;stroke-linecap:butt;stroke-linejoin:miter;stroke-opacity:1"
       transform="matrix(0.31179342,0,0,0.31179342,30.236551,-629.98216)"><flowRegion
         id="flowRegion834"
         style="font-style:normal;font-variant:normal;font-weight:normal;font-stretch:normal;font-size:192px;font-family:'Linux Biolinum';-inkscape-font-specification:'Linux Biolinum';fill:#0000ff"><rect
           id="rect836"
           width="3488.7817"
           height="777.41241"
           x="294.88055"
           y="1780.7722"
           style="font-style:normal;font-variant:normal;font-weight:normal;font-stretch:normal;font-size:192px;font-family:'Linux Biolinum';-inkscape-font-specification:'Linux Biolinum';fill:#0000ff" /></flowRegion><flowPara
         id="flowPara838">github.com/marian-vignau/certmailer</flowPara></flowRoot>    <path
       inkscape:export-ydpi="26.58"
       inkscape:export-xdpi="26.58"
       inkscape:export-filename="/home/marian/PycharmProjects/certmailer/sample_job/attach/LOGO.png"
       sodipodi:nodetypes="sscsssscs"
       inkscape:connector-curvature="0"
       id="path842"
       d="m 76.606942,-243.67711 h 35.527148 c 1.55121,0 2.18269,1.08575 1.41586,2.43441 l -21.916106,38.54507 c -0.766831,1.34866 -2.632983,2.43441 -4.184192,2.43441 H 51.9225 c -1.551217,0 -2.182691,-1.08575 -1.415861,-2.43441 l 21.916119,-38.54507 c 0.766822,-1.34866 2.632967,-2.43441 4.184184,-2.43441 z"
       style="opacity:1;vector-effect:none;fill:#88aa00;fill-opacity:1;stroke:#ffffff;stroke-width:0.30700782;stroke-linecap:round;stroke-linejoin:round;stroke-miterlimit:4;stroke-dasharray:none;stroke-dashoffset:0;stroke-opacity:1" />
    <path
       inkscape:export-ydpi="26.58"
       inkscape:export-xdpi="26.58"
       inkscape:export-filename="/home/marian/PycharmProjects/certmailer/sample_job/attach/LOGO.png"
       style="opacity:1;vector-effect:none;fill:#decd87;fill-opacity:1;stroke:#ffffff;stroke-width:0.30700773;stroke-linecap:round;stroke-linejoin:round;stroke-miterlimit:4;stroke-dasharray:none;stroke-dashoffset:0;stroke-opacity:1"
       d="m 76.60695,-52.656397 h 35.52712 c 1.55122,0 2.18271,1.085745 1.41589,2.434406 l -21.91612,38.545068 c -0.76683,1.348659 -2.632982,2.4344059 -4.184191,2.4344059 H 51.922493 c -1.551209,0 -2.182683,-1.0857469 -1.415853,-2.4344059 l 21.91612,-38.545068 c 0.76683,-1.348661 2.632973,-2.434406 4.18419,-2.434406 z"
       id="path844"
       inkscape:connector-curvature="0"
       sodipodi:nodetypes="sscsssscs" />
  </g>
</svg>
