<?xml version="1.0" encoding="UTF-8" standalone="no"?>
<!-- Created with Inkscape (http://www.inkscape.org/) -->

<svg
   xmlns:dc="http://purl.org/dc/elements/1.1/"
   xmlns:cc="http://creativecommons.org/ns#"
   xmlns:rdf="http://www.w3.org/1999/02/22-rdf-syntax-ns#"
   xmlns:svg="http://www.w3.org/2000/svg"
   xmlns="http://www.w3.org/2000/svg"
   xmlns:sodipodi="http://sodipodi.sourceforge.net/DTD/sodipodi-0.dtd"
   xmlns:inkscape="http://www.inkscape.org/namespaces/inkscape"
   width="1189mm"
   height="841mm"
   viewBox="0 0 1189 841"
   version="1.1"
   id="svg8"
   inkscape:version="0.92.3 (2405546, 2018-03-11)"
   sodipodi:docname="certificate.svg">
  <defs
     id="defs2" />
  <sodipodi:namedview
     id="base"
     pagecolor="#ffffff"
     bordercolor="#666666"
     borderopacity="1.0"
     inkscape:pageopacity="0.0"
     inkscape:pageshadow="2"
     inkscape:zoom="0.26112267"
     inkscape:cx="2246.9291"
     inkscape:cy="1589.2913"
     inkscape:document-units="mm"
     inkscape:current-layer="layer1"
     showgrid="false"
     inkscape:snap-nodes="false"
     inkscape:window-width="1920"
     inkscape:window-height="1029"
     inkscape:window-x="0"
     inkscape:window-y="1080"
     inkscape:window-maximized="1" />
  <metadata
     id="metadata5">
    <rdf:RDF>
      <cc:Work
         rdf:about="">
        <dc:format>image/svg+xml</dc:format>
        <dc:type
           rdf:resource="http://purl.org/dc/dcmitype/StillImage" />
        <dc:title></dc:title>
      </cc:Work>
    </rdf:RDF>
  </metadata>
  <g
     inkscape:label="Capa 1"
     inkscape:groupmode="layer"
     id="layer1"
     transform="translate(0,544)">
    <path
       style="opacity:1;vector-effect:none;fill:#aa0000;fill-opacity:1;stroke:#ffffff;stroke-width:0.85077548;stroke-linecap:round;stroke-linejoin:round;stroke-miterlimit:4;stroke-dasharray:none;stroke-dashoffset:0;stroke-opacity:1"
       d="m 121.92176,-489.32198 h 633.30775 c 4.29868,0 6.04861,3.0088 3.92361,6.74619 l -60.73363,106.81555 c -2.12502,3.73739 -7.29648,6.74619 -11.59517,6.74619 H 53.516581 c -4.298691,0 -6.048612,-3.0088 -3.923589,-6.74619 l 60.733618,-106.81555 c 2.12502,-3.73739 7.29646,-6.74619 11.59515,-6.74619 z"
       id="rect5654"
       inkscape:connector-curvature="0"
       inkscape:export-filename="/home/marian/PycharmProjects/certmailer/sample_job/attach/LOGO.png"
       inkscape:export-xdpi="26.58"
       inkscape:export-ydpi="26.58" />
    <path
       id="path5657"
       d="m 121.92176,-489.32198 h 633.30775 c 4.29868,0 6.04861,3.0088 3.92361,6.74619 l -60.73363,106.81555 c -2.12502,3.73739 -7.29648,6.74619 -11.59517,6.74619 H 53.516581 c -4.298691,0 -6.048612,-3.0088 -3.923589,-6.74619 l 60.733618,-106.81555 c 2.12502,-3.73739 7.29646,-6.74619 11.59515,-6.74619 z"
       style="opacity:1;vector-effect:none;fill:#005522;fill-opacity:1;stroke:#ffffff;stroke-width:0.85077548;stroke-linecap:round;stroke-linejoin:round;stroke-miterlimit:4;stroke-dasharray:none;stroke-dashoffset:0;stroke-opacity:1"
       inkscape:connector-curvature="0"
       inkscape:export-filename="/home/marian/PycharmProjects/certmailer/sample_job/attach/LOGO.png"
       inkscape:export-xdpi="26.58"
       inkscape:export-ydpi="26.58" />
    <path
       style="opacity:1;vector-effect:none;fill:#88aa00;fill-opacity:1;stroke:#ffffff;stroke-width:0.85077542;stroke-linecap:round;stroke-linejoin:round;stroke-miterlimit:4;stroke-dasharray:none;stroke-dashoffset:0;stroke-opacity:1"
       d="m 788.4953,-489.32198 h 98.45232 c 4.29868,0 6.04864,3.0088 3.92361,6.74619 l -60.7336,106.81555 c -2.12503,3.73739 -7.29649,6.74619 -11.59517,6.74619 h -98.45232 c -4.2987,0 -6.04863,-3.0088 -3.92361,-6.74619 l 60.73362,-106.81555 c 2.12501,-3.73739 7.29645,-6.74619 11.59515,-6.74619 z"
       id="path5659"
       inkscape:connector-curvature="0"
       sodipodi:nodetypes="sscsssscs"
       inkscape:export-filename="/home/marian/PycharmProjects/certmailer/sample_job/attach/LOGO.png"
       inkscape:export-xdpi="26.58"
       inkscape:export-ydpi="26.58" />
    <path
       sodipodi:nodetypes="sscsssscs"
       inkscape:connector-curvature="0"
       id="path5661"
       d="m 920.21344,-489.32198 h 98.45226 c 4.2987,0 6.0487,3.0088 3.9237,6.74619 l -60.73364,106.81555 c -2.12504,3.73739 -7.29649,6.74619 -11.59517,6.74619 h -98.45233 c -4.2987,0 -6.04862,-3.0088 -3.92359,-6.74619 l 60.73362,-106.81555 c 2.12501,-3.73739 7.29644,-6.74619 11.59515,-6.74619 z"
       style="opacity:1;vector-effect:none;fill:#decd87;fill-opacity:1;stroke:#ffffff;stroke-width:0.85077542;stroke-linecap:round;stroke-linejoin:round;stroke-miterlimit:4;stroke-dasharray:none;stroke-dashoffset:0;stroke-opacity:1"
       inkscape:export-filename="/home/marian/PycharmProjects/certmailer/sample_job/attach/LOGO.png"
       inkscape:export-xdpi="26.58"
       inkscape:export-ydpi="26.58" />
    <flowRoot
       xml:space="preserve"
       id="flowRoot836"
       style="font-style:normal;font-variant:normal;font-weight:normal;font-stretch:normal;font-size:12px;line-height:1.25;font-family:serif;-inkscape-font-specification:serif;letter-spacing:0px;word-spacing:0px;fill:#000000;fill-opacity:1;stroke:none"
       transform="scale(0.26458333)"><flowRegion
         id="flowRegion838"><rect
           id="rect840"
           width="26.526819"
           height="36.563995"
           x="-602.23047"
           y="356.82663" /></flowRegion><flowPara
         id="flowPara842" /></flowRoot>    <text
       xml:space="preserve"
       style="font-style:normal;font-variant:normal;font-weight:bold;font-stretch:normal;font-size:95.78895569px;line-height:1.25;font-family:Consolas;-inkscape-font-specification:'Consolas Bold';letter-spacing:0px;word-spacing:0px;fill:#ffffff;fill-opacity:1;stroke:none;stroke-width:0.45020205"
       x="99.749619"
       y="-400.05264"
       id="text5652"
       inkscape:export-filename="/home/marian/PycharmProjects/certmailer/sample_job/attach/LOGO.png"
       inkscape:export-xdpi="26.58"
       inkscape:export-ydpi="26.58"><tspan
         sodipodi:role="line"
         id="tspan5650"
         x="99.749619"
         y="-400.05264"
         style="fill:#ffffff;stroke-width:0.45020205">certmail</tspan></text>
    <path
       inkscape:connector-curvature="0"
       id="path1041"
       d="m 1073.3071,256.53239 c -0.3858,-0.13344 -0.7452,-0.28784 -0.7986,-0.34318 -0.054,-0.0554 0.3026,-0.46893 0.7914,-0.91912 0.4887,-0.45014 4.847,-4.56645 9.6851,-9.14729 4.8381,-4.58086 8.8471,-8.32884 8.9089,-8.32884 0.062,0 1.394,1.22216 2.9603,2.7159 3.3416,3.18656 3.6995,3.41383 5.377,3.41402 1.6373,1.2e-4 2.0235,-0.24583 5.3244,-3.39213 1.5375,-1.46535 2.8259,-2.66583 2.8632,-2.66771 0.1064,-0.005 19.2331,18.25074 19.2331,18.35775 0,0.0524 -0.2995,0.19772 -0.6655,0.32285 -0.6184,0.21123 -2.5178,0.22753 -26.8217,0.22893 -24.9522,10e-4 -26.1884,-0.009 -26.8576,-0.24111 z m -2.8759,-3.23015 c -0.1094,-0.54745 -0.1082,-35.13829 10e-4,-35.68589 0.046,-0.23195 0.1274,-0.40431 0.1798,-0.38312 0.053,0.021 0.3592,0.3521 0.6812,0.73536 0.322,0.38326 4.449,4.36288 9.1711,8.8436 4.7221,4.48073 8.6912,8.24745 8.8204,8.37051 0.2222,0.21169 -0.2299,0.66628 -8.3859,8.43249 -9.5229,9.06778 -9.984,9.51837 -10.0935,9.86364 -0.1157,0.36531 -0.2816,0.28706 -0.3742,-0.17652 z m 58.747,-0.18561 c -0.2538,-0.33116 -4.4747,-4.41726 -9.3798,-9.0802 -4.9051,-4.66291 -8.9183,-8.49921 -8.9183,-8.52509 0,-0.0258 4.0432,-3.89695 8.9849,-8.60238 8.347,-7.94791 9.605,-9.18711 9.7568,-9.61129 0.031,-0.0876 0.1099,-0.10922 0.1748,-0.048 0.1321,0.12412 0.2446,34.99941 0.1158,35.90279 -0.044,0.31149 -0.1239,0.56635 -0.177,0.56635 -0.053,0 -0.3038,-0.27096 -0.5576,-0.60214 z m -30.1185,-13.59751 c -0.7281,-0.23309 0.5082,0.91277 -15.8,-14.6442 -5.8202,-5.55213 -10.5822,-10.13383 -10.5822,-10.18155 0,-0.0477 0.2995,-0.18934 0.6655,-0.31479 0.6204,-0.21263 2.4515,-0.22613 27.0213,-0.19982 25.3618,0.0273 26.3772,0.0375 26.9216,0.27586 0.3111,0.13623 0.5657,0.28719 0.5657,0.33547 0,0.21215 -25.3793,24.10465 -25.9706,24.44922 -0.8049,0.46906 -1.8933,0.57702 -2.8213,0.27991 z"
       style="fill:#003380;stroke-width:1"
       inkscape:export-filename="/home/marian/PycharmProjects/certmailer/sample_job/attach/PIE.png"
       inkscape:export-xdpi="37.279999"
       inkscape:export-ydpi="37.279999" />
    <path
       style="opacity:0.7;fill:#003380;stroke-width:1"
       d="m 995.9558,256.53239 c -0.38578,-0.13344 -0.74519,-0.28784 -0.79866,-0.34318 -0.0536,-0.0554 0.30266,-0.46893 0.79141,-0.91912 0.48873,-0.45014 4.84705,-4.56645 9.68515,-9.14729 4.8381,-4.58086 8.8471,-8.32884 8.9089,-8.32884 0.062,0 1.394,1.22216 2.9603,2.7159 3.3416,3.18656 3.6995,3.41383 5.377,3.41402 1.6373,1.2e-4 2.0235,-0.24583 5.3244,-3.39213 1.5375,-1.46535 2.8259,-2.66583 2.8632,-2.66771 0.1064,-0.005 19.2331,18.25074 19.2331,18.35775 0,0.0524 -0.2995,0.19772 -0.6655,0.32285 -0.6185,0.21123 -2.5179,0.22753 -26.8217,0.22893 -24.95219,10e-4 -26.18843,-0.009 -26.8576,-0.24111 z m -2.87587,-3.23015 c -0.10946,-0.54745 -0.10829,-35.13829 10e-4,-35.68589 0.0463,-0.23195 0.12739,-0.40431 0.17979,-0.38312 0.0526,0.021 0.35913,0.3521 0.68116,0.73536 0.32201,0.38326 4.449,4.36288 9.17112,8.8436 4.7221,4.48073 8.6912,8.24745 8.8204,8.37051 0.2222,0.21169 -0.2299,0.66628 -8.386,8.43249 -9.52282,9.06778 -9.98391,9.51837 -10.09339,9.86364 -0.11574,0.36531 -0.2816,0.28706 -0.37422,-0.17652 z m 58.74687,-0.18561 c -0.2537,-0.33116 -4.4746,-4.41726 -9.3797,-9.0802 -4.9051,-4.66291 -8.9183,-8.49921 -8.9183,-8.52509 0,-0.0258 4.0432,-3.89695 8.9849,-8.60238 8.347,-7.94791 9.6049,-9.18711 9.7567,-9.61129 0.031,-0.0876 0.11,-0.10922 0.1749,-0.048 0.1321,0.12412 0.2446,34.99941 0.1158,35.90279 -0.044,0.31149 -0.1239,0.56635 -0.177,0.56635 -0.053,0 -0.3038,-0.27096 -0.5576,-0.60214 z m -30.1185,-13.59751 c -0.728,-0.23309 0.5083,0.91277 -15.7999,-14.6442 -5.8202,-5.55213 -10.58225,-10.13383 -10.58225,-10.18155 0,-0.0477 0.29951,-0.18934 0.66553,-0.31479 0.62045,-0.21263 2.45151,-0.22613 27.02132,-0.19982 25.3617,0.0273 26.3772,0.0375 26.9216,0.27586 0.3111,0.13623 0.5657,0.28719 0.5657,0.33547 0,0.21215 -25.3793,24.10465 -25.9706,24.44922 -0.8049,0.46906 -1.8934,0.57702 -2.8214,0.27991 z"
       id="path1044"
       inkscape:connector-curvature="0"
       inkscape:export-filename="/home/marian/PycharmProjects/certmailer/sample_job/attach/PIE.png"
       inkscape:export-xdpi="37.279999"
       inkscape:export-ydpi="37.279999" />
    <path
       inkscape:connector-curvature="0"
       id="path1046"
       d="m 920.81454,256.53239 c -0.38578,-0.13344 -0.74519,-0.28784 -0.79866,-0.34318 -0.0536,-0.0554 0.30266,-0.46893 0.79141,-0.91912 0.48873,-0.45014 4.84705,-4.56645 9.68511,-9.14729 4.83809,-4.58086 8.8471,-8.32884 8.90894,-8.32884 0.0617,0 1.39397,1.22216 2.96033,2.7159 3.34152,3.18656 3.69947,3.41383 5.377,3.41402 1.6373,1.2e-4 2.02342,-0.24583 5.3244,-3.39213 1.53743,-1.46535 2.82584,-2.66583 2.86315,-2.66771 0.10643,-0.005 19.23313,18.25074 19.23313,18.35775 0,0.0524 -0.29952,0.19772 -0.66554,0.32285 -0.61843,0.21123 -2.51783,0.22753 -26.82169,0.22893 -24.95217,10e-4 -26.18841,-0.009 -26.85758,-0.24111 z m -2.87587,-3.23015 c -0.10946,-0.54745 -0.10829,-35.13829 10e-4,-35.68589 0.0463,-0.23195 0.12739,-0.40431 0.17979,-0.38312 0.0526,0.021 0.35913,0.3521 0.68116,0.73536 0.32201,0.38326 4.449,4.36288 9.17109,8.8436 4.72208,4.48073 8.69125,8.24745 8.82041,8.37051 0.22217,0.21169 -0.22986,0.66628 -8.38594,8.43249 -9.52286,9.06778 -9.98395,9.51837 -10.09343,9.86364 -0.11574,0.36531 -0.2816,0.28706 -0.37422,-0.17652 z m 58.74691,-0.18561 c -0.25375,-0.33116 -4.47462,-4.41726 -9.37973,-9.0802 -4.90511,-4.66291 -8.91836,-8.49921 -8.91836,-8.52509 0,-0.0258 4.0432,-3.89695 8.98492,-8.60238 8.347,-7.94791 9.60497,-9.18711 9.75677,-9.61129 0.0314,-0.0876 0.10992,-0.10922 0.17489,-0.048 0.13205,0.12412 0.24458,34.99941 0.11575,35.90279 -0.0443,0.31149 -0.1239,0.56635 -0.17699,0.56635 -0.0529,0 -0.30383,-0.27096 -0.55758,-0.60214 z m -30.1185,-13.59751 c -0.72802,-0.23309 0.50827,0.91277 -15.79994,-14.6442 -5.82025,-5.55213 -10.58225,-10.13383 -10.58225,-10.18155 0,-0.0477 0.29951,-0.18934 0.66553,-0.31479 0.62045,-0.21263 2.45151,-0.22613 27.02135,-0.19982 25.36171,0.0273 26.37714,0.0375 26.92153,0.27586 0.31113,0.13623 0.5657,0.28719 0.5657,0.33547 0,0.21215 -25.37925,24.10465 -25.97055,24.44922 -0.80494,0.46906 -1.89337,0.57702 -2.82137,0.27991 z"
       style="opacity:0.5;fill:#003380;stroke-width:1"
       inkscape:export-filename="/home/marian/PycharmProjects/certmailer/sample_job/attach/PIE.png"
       inkscape:export-xdpi="37.279999"
       inkscape:export-ydpi="37.279999" />
    <path
       inkscape:connector-curvature="0"
       id="path1048"
       d="m 849.31511,210.51576 v 0.32853 H 586.6694 l 26.54043,11.63929 28.45111,12.4781 -28.45111,12.47738 -28.2936,12.40895 v 0.25018 h 264.39888 v 0.32853 l 28.45186,-12.47811 28.45182,-12.47737 -28.45182,-12.4781 z"
       style="opacity:1;vector-effect:none;fill:#aaaaff;fill-opacity:0.90534979;stroke:none;stroke-width:1.16972828;stroke-linecap:round;stroke-linejoin:round;stroke-miterlimit:4;stroke-dasharray:none;stroke-dashoffset:0;stroke-opacity:1"
       inkscape:export-filename="/home/marian/PycharmProjects/certmailer/sample_job/attach/PIE.png"
       inkscape:export-xdpi="37.279999"
       inkscape:export-ydpi="37.279999" />
    <text
       id="text1052"
       y="244.22803"
       x="660.51422"
       style="font-style:normal;font-variant:normal;font-weight:bold;font-stretch:normal;font-size:28.90234566px;line-height:1.25;font-family:Consolas;-inkscape-font-specification:'Consolas Bold';letter-spacing:0px;word-spacing:0px;fill:#000000;fill-opacity:1;stroke:none;stroke-width:0.61898112"
       xml:space="preserve"
       inkscape:export-filename="/home/marian/PycharmProjects/certmailer/sample_job/attach/PIE.png"
       inkscape:export-xdpi="37.279999"
       inkscape:export-ydpi="37.279999"><tspan
         style="stroke-width:0.61898112"
         y="244.22803"
         x="660.51422"
         id="tspan1050"
         sodipodi:role="line">by mavignau</tspan></text>
    <flowRoot
       transform="matrix(1.5642925,0,0,1.5642925,-150.01086,-548.9761)"
       xml:space="preserve"
       id="flowRoot815"
       style="font-style:normal;font-variant:normal;font-weight:bold;font-stretch:normal;font-size:42.66666794px;line-height:125%;font-family:'Linux Biolinum';-inkscape-font-specification:'Linux Biolinum Bold';text-align:start;letter-spacing:0px;word-spacing:0px;writing-mode:lr-tb;text-anchor:start;fill:#000000;fill-opacity:1;stroke:none;stroke-width:1px;stroke-linecap:butt;stroke-linejoin:miter;stroke-opacity:1"><flowRegion
         id="flowRegion817"
         style="font-size:42.66666794px"><rect
           id="rect819"
           width="581.67719"
           height="258.5867"
           x="148.57143"
           y="179.41508"
           style="font-size:42.66666794px" /></flowRegion><flowPara
         id="flowPara1996">Certificamos que {{name}} a participado en {{title}} como {{category}}.</flowPara></flowRoot>  </g>
</svg>
